<svg width="24" height="24" viewBox="0 0 24 24" xmlns="http://www.w3.org/2000/svg">
    <path d="M2 3.76167C2 3.34101 2.34101 3 2.76167 3H5.75737C6.12291 3 6.4369 3.25967 6.50551 3.61871L7.13677 6.9222H19.238C19.4639 6.9222 19.6781 7.02246 19.8229 7.19591C19.9676 7.36935 20.0278 7.59808 19.9874 7.82031L18.7891 14.4018L18.7881 14.4072C18.6879 14.9355 18.4123 15.4172 18.0008 15.7641C17.5907 16.1099 17.0723 16.2987 16.5351 16.29H9.26917C8.73199 16.2987 8.21355 16.1099 7.80341 15.7641C7.39214 15.4173 7.11658 14.9359 7.01629 14.4079L7.01616 14.4072L5.76492 7.85929C5.76001 7.83844 5.75595 7.81727 5.75279 7.7958L5.12747 4.52334H2.76167C2.34101 4.52334 2 4.18233 2 3.76167ZM8.75368 17.9039C7.88638 17.9039 7.24349 18.6301 7.24349 19.45C7.24349 20.2698 7.88638 20.9961 8.75368 20.9961C9.62099 20.9961 10.2639 20.2698 10.2639 19.45C10.2639 18.6301 9.62099 17.9039 8.75368 17.9039ZM16.9908 17.9039C16.1235 17.9039 15.4807 18.6301 15.4807 19.45C15.4807 20.2698 16.1235 20.9961 16.9908 20.9961C17.8582 20.9961 18.501 20.2698 18.501 19.45C18.501 18.6301 17.8582 17.9039 16.9908 17.9039Z"/>
</svg>
