<svg width="17" height="16" viewBox="0 0 17 16" fill="none" xmlns="http://www.w3.org/2000/svg">
    <g clip-path="url(#clip0_2435_89218)">
        <path fill-rule="evenodd" clip-rule="evenodd" d="M2.38547 0.51017C2.56045 0.335459 2.77055 0.199929 3.00187 0.11256C3.23318 0.025192 3.48043 -0.012019 3.72721 0.00339321C3.97399 0.0188054 4.21469 0.0864889 4.43333 0.201958C4.65198 0.317428 4.84359 0.478046 4.99547 0.67317L6.79047 2.97917C7.11947 3.40217 7.23547 3.95317 7.10547 4.47317L6.55847 6.66317C6.53019 6.7766 6.53172 6.89541 6.56291 7.00808C6.5941 7.12074 6.65388 7.22343 6.73647 7.30617L9.19347 9.76317C9.27631 9.84592 9.37916 9.90581 9.49202 9.93701C9.60488 9.9682 9.72389 9.96964 9.83747 9.94117L12.0265 9.39417C12.2831 9.33001 12.5509 9.32502 12.8098 9.3796C13.0686 9.43417 13.3116 9.54686 13.5205 9.70917L15.8265 11.5032C16.6555 12.1482 16.7315 13.3732 15.9895 14.1142L14.9555 15.1482C14.2155 15.8882 13.1095 16.2132 12.0785 15.8502C9.43965 14.9217 7.04374 13.411 5.06847 11.4302C3.08776 9.45518 1.57708 7.05963 0.648471 4.42117C0.286471 3.39117 0.611471 2.28417 1.35147 1.54417L2.38547 0.51017Z" fill="currentColor"/>
    </g>
    <defs>
        <clipPath id="clip0_2435_89218">
            <rect width="16" height="16" fill="white" transform="translate(0.5)"/>
        </clipPath>
    </defs>
</svg>
