<svg width="21" height="20" viewBox="0 0 21 20" fill="none" xmlns="http://www.w3.org/2000/svg">
    <path d="M2.16985 18.3332L3.29652 14.1932C2.55413 12.9205 2.1641 11.4732 2.16652 9.99984C2.16652 5.39734 5.89735 1.6665 10.4998 1.6665C15.1023 1.6665 18.8332 5.39734 18.8332 9.99984C18.8332 14.6023 15.1023 18.3332 10.4998 18.3332C9.02716 18.3355 7.5804 17.9458 6.30818 17.204L2.16985 18.3332ZM7.49235 6.08984C7.38473 6.09652 7.27958 6.12486 7.18318 6.17317C7.09278 6.22436 7.01026 6.28836 6.93818 6.36317C6.83818 6.45734 6.78152 6.539 6.72068 6.61817C6.41269 7.019 6.24702 7.51102 6.24985 8.0165C6.25151 8.42484 6.35818 8.82234 6.52485 9.194C6.86568 9.94567 7.42652 10.7415 8.16735 11.479C8.34568 11.6565 8.51985 11.8348 8.70735 12.0007C9.62684 12.8102 10.7226 13.394 11.9073 13.7057L12.3815 13.7782C12.5357 13.7865 12.6898 13.7748 12.8448 13.7673C13.0875 13.7548 13.3245 13.6891 13.539 13.5748C13.6481 13.5186 13.7546 13.4574 13.8582 13.3915C13.8582 13.3915 13.894 13.3682 13.9623 13.3165C14.0748 13.2332 14.144 13.174 14.2373 13.0765C14.3065 13.0048 14.3665 12.9207 14.4123 12.8248C14.4773 12.689 14.5423 12.4298 14.569 12.214C14.589 12.049 14.5832 11.959 14.5807 11.9032C14.5773 11.814 14.5032 11.7215 14.4223 11.6823L13.9373 11.4648C13.9373 11.4648 13.2123 11.149 12.7698 10.9473C12.7232 10.927 12.6732 10.9154 12.6223 10.9132C12.5653 10.9073 12.5077 10.9137 12.4534 10.932C12.3991 10.9502 12.3493 10.9799 12.3073 11.019V11.0173C12.3032 11.0173 12.2473 11.0648 11.6448 11.7948C11.6103 11.8413 11.5626 11.8764 11.508 11.8957C11.4534 11.915 11.3943 11.9176 11.3382 11.9032C11.2839 11.8887 11.2307 11.8703 11.179 11.8482C11.0757 11.8048 11.0398 11.7882 10.969 11.7573L10.9648 11.7557C10.4881 11.5475 10.0467 11.2664 9.65651 10.9223C9.55151 10.8307 9.45401 10.7307 9.35401 10.634C9.02616 10.32 8.74044 9.96485 8.50401 9.57734L8.45485 9.49817C8.41953 9.44497 8.39098 9.38759 8.36985 9.32734C8.33818 9.20484 8.42068 9.1065 8.42068 9.1065C8.42068 9.1065 8.62318 8.88484 8.71735 8.76484C8.79576 8.6651 8.86891 8.56135 8.93651 8.454C9.03485 8.29567 9.06568 8.13317 9.01401 8.00734C8.78068 7.43734 8.53901 6.86984 8.29068 6.3065C8.24151 6.19484 8.09568 6.11484 7.96318 6.099C7.91818 6.094 7.87318 6.089 7.82818 6.08567C7.71627 6.08011 7.60413 6.08206 7.49235 6.08984Z" fill="currentColor"/>
</svg>
